<svg preserveAspectRatio="none" overflow="visible" style="display: block;" width="17" height="14.9597" viewBox="0 0 17 14.9597" fill="none" xmlns="http://www.w3.org/2000/svg">
<g id="Group 3">
<path id="Vector" d="M8.52321 6.51607C7.6594 6.52394 6.82774 6.18881 6.21073 5.58423C5.59371 4.97965 5.24172 4.155 5.232 3.29121C5.232 2.41832 5.57875 1.58119 6.19597 0.963972C6.81319 0.346751 7.65032 0 8.52321 0C9.39609 0 10.2332 0.346751 10.8504 0.963972C11.4677 1.58119 11.8144 2.41832 11.8144 3.29121C11.8144 3.71709 11.7286 4.1386 11.562 4.53057C11.3955 4.92254 11.1517 5.27693 10.8451 5.57257C10.2243 6.17862 9.39078 6.51733 8.52321 6.51607ZM8.52321 0.799767C7.85425 0.791897 7.20953 1.04986 6.73064 1.517C6.25175 1.98415 5.97785 2.62227 5.96911 3.29121C5.97882 3.9595 6.25314 4.59668 6.73193 5.06303C7.21071 5.52938 7.85488 5.78684 8.52321 5.77896C9.19972 5.78003 9.84959 5.51531 10.3328 5.04185C10.5669 4.81372 10.7528 4.54087 10.8795 4.23951C11.0061 3.93814 11.0709 3.61441 11.0699 3.28752C11.0602 2.62051 10.7869 1.98446 10.3097 1.51832C9.83254 1.05218 9.19026 0.793853 8.52321 0.799767ZM3.33762 14.2668C2.90471 14.2814 2.47328 14.2088 2.06902 14.0532C1.66476 13.8977 1.29593 13.6623 0.984513 13.3613C0.673092 13.0602 0.425439 12.6995 0.256302 12.3008C0.087164 11.902 0 11.4733 0 11.0401C0 10.6069 0.087164 10.1782 0.256302 9.77944C0.425439 9.38066 0.673092 9.02 0.984513 8.71893C1.29593 8.41786 1.66476 8.18253 2.06902 8.02696C2.47328 7.87139 2.90471 7.79876 3.33762 7.81339C3.77053 7.79876 4.20196 7.87139 4.60622 8.02696C5.01048 8.18253 5.3793 8.41786 5.69073 8.71893C6.00215 9.02 6.2498 9.38066 6.41894 9.77944C6.58808 10.1782 6.67524 10.6069 6.67524 11.0401C6.67524 11.4733 6.58808 11.902 6.41894 12.3008C6.2498 12.6995 6.00215 13.0602 5.69073 13.3613C5.3793 13.6623 5.01048 13.8977 4.60622 14.0532C4.20196 14.2088 3.77053 14.2814 3.33762 14.2668ZM3.33762 8.5505C3.00262 8.53761 2.66847 8.59246 2.35517 8.71177C2.04187 8.83107 1.75587 9.01238 1.5143 9.24483C1.27273 9.47729 1.08056 9.7561 0.949297 10.0646C0.818031 10.3731 0.750373 10.7049 0.750373 11.0401C0.750373 11.3753 0.818031 11.7071 0.949297 12.0156C1.08056 12.3241 1.27273 12.6029 1.5143 12.8354C1.75587 13.0678 2.04187 13.2491 2.35517 13.3684C2.66847 13.4877 3.00262 13.5426 3.33762 13.5297C3.67262 13.5426 4.00677 13.4877 4.32007 13.3684C4.63337 13.2491 4.91937 13.0678 5.16094 12.8354C5.40251 12.6029 5.59468 12.3241 5.72594 12.0156C5.85721 11.7071 5.92487 11.3753 5.92487 11.0401C5.92487 10.7049 5.85721 10.3731 5.72594 10.0646C5.59468 9.7561 5.40251 9.47729 5.16094 9.24483C4.91937 9.01238 4.63337 8.83107 4.32007 8.71177C4.00677 8.59246 3.67262 8.53761 3.33762 8.5505ZM13.7088 14.2631C13.0729 14.2508 12.4548 14.0509 11.9321 13.6886C11.4094 13.3262 11.0054 12.8176 10.7707 12.2264C10.536 11.6353 10.4812 10.988 10.613 10.3658C10.7449 9.74364 11.0576 9.17425 11.5119 8.72913C11.9662 8.284 12.5418 7.98297 13.1665 7.8638C13.7913 7.74464 14.4373 7.81265 15.0235 8.05931C15.6098 8.30597 16.1101 8.72028 16.4617 9.25025C16.8133 9.78023 17.0006 10.4022 17 11.0383C16.9903 11.902 16.6383 12.7267 16.0213 13.3313C15.4043 13.9359 14.5726 14.271 13.7088 14.2631ZM13.7088 8.54682C13.2189 8.55914 12.7435 8.71567 12.3421 8.99682C11.9407 9.27796 11.6312 9.67124 11.4522 10.1274C11.2732 10.5836 11.2327 11.0825 11.3358 11.5616C11.4389 12.0407 11.6809 12.4787 12.0317 12.8209C12.3825 13.1631 12.8265 13.3943 13.308 13.4854C13.7895 13.5766 14.2872 13.5237 14.7388 13.3335C15.1904 13.1432 15.5759 12.8239 15.847 12.4157C16.1181 12.0074 16.2627 11.5283 16.2629 11.0383C16.2532 10.37 15.9789 9.73279 15.5001 9.26644C15.0213 8.80009 14.3771 8.54263 13.7088 8.5505V8.54682Z" fill="white"/>
<path id="Vector_2" d="M8.44237 14.9596C7.10033 14.9633 5.79405 14.5271 4.72364 13.7175L4.30349 13.408L4.74575 13.1205C5.09552 12.8985 5.38383 12.5921 5.58413 12.2295C5.78443 11.8669 5.89029 11.4598 5.89196 11.0455C5.88225 10.3772 5.60793 9.74003 5.12915 9.27369C4.65036 8.80734 4.00619 8.54988 3.33787 8.55775C3.13174 8.55804 2.92637 8.58278 2.72607 8.63146L2.22852 8.7494L2.258 8.24817C2.34393 7.23346 2.67924 6.2557 3.23413 5.40182C3.78902 4.54794 4.5463 3.8444 5.43864 3.35374L5.94356 3.08838L6.01359 3.62279C6.10797 4.21809 6.40927 4.76105 6.86448 5.15614C7.31968 5.55122 7.89963 5.77312 8.50229 5.78281C9.10496 5.79249 9.69174 5.58934 10.1594 5.20908C10.6271 4.82883 10.9457 4.29584 11.0591 3.70387L11.1476 3.17315L11.6083 3.44956C12.4502 3.94892 13.1622 4.64024 13.6861 5.46713C14.2101 6.29402 14.5311 7.23305 14.6231 8.20762L14.6673 8.69043L14.1882 8.60198C14.035 8.57324 13.8796 8.55844 13.7238 8.55775C13.0555 8.54988 12.4113 8.80734 11.9325 9.27369C11.4537 9.74003 11.1794 10.3772 11.1697 11.0455C11.1724 11.4442 11.2713 11.8363 11.458 12.1886C11.6448 12.5409 11.9138 12.8428 12.2422 13.0689L12.6513 13.3564L12.2569 13.6623C11.1679 14.5122 9.82376 14.9694 8.44237 14.9596ZM5.57501 13.408C6.45446 13.9525 7.4706 14.2357 8.50491 14.2246C9.53922 14.2135 10.5491 13.9085 11.4166 13.3453C11.1047 13.0479 10.8562 12.6906 10.6858 12.2948C10.5154 11.8989 10.4268 11.4728 10.4252 11.0418C10.4293 10.605 10.5211 10.1736 10.6953 9.77299C10.8695 9.37242 11.1224 9.01097 11.4391 8.71012C11.7557 8.40927 12.1297 8.17517 12.5386 8.02173C12.9476 7.86829 13.3832 7.79865 13.8196 7.81696C13.5684 6.42216 12.7864 5.17903 11.6378 4.34884C11.4013 4.99592 10.9691 5.55329 10.4014 5.94358C9.83367 6.33386 9.1585 6.53768 8.46965 6.52674C7.78079 6.5158 7.11244 6.29064 6.55739 5.88252C6.00234 5.47441 5.58814 4.90359 5.3723 4.24933C4.76793 4.65998 4.25249 5.18818 3.85673 5.8024C3.46097 6.41662 3.193 7.10428 3.06882 7.82433C3.51739 7.78303 3.96964 7.8352 4.39703 7.97755C4.82441 8.11989 5.21763 8.34932 5.55185 8.65133C5.88607 8.95334 6.15403 9.32138 6.33881 9.7322C6.52359 10.143 6.62117 10.5877 6.62539 11.0381C6.62604 11.4847 6.53288 11.9264 6.35193 12.3346C6.17099 12.7429 5.90629 13.1085 5.57501 13.408Z" fill="white"/>
<circle id="Ellipse 30" cx="8.5" cy="3" r="3" fill="white"/>
</g>
</svg>
